Patient4_TMGait_0pt3_01_left_08_EMG.mot
version=1
nRows=30
nColumns=33
inDegrees=no
endheader
time	1LAddLong	2LGlutMax	3LGlutMed	4LIliopsoas	5LSemiMemb	6LBicFemLong	7LRecFem	8LVastMed	9LVastLat	10LGasMed	11LTibAnt	12lTibPost	13LPeroneusLong	14LSol	15LExtDigLong	16LFlexDigLong	17RAddLong	18RGlutMax	19RGlutMed	20RIliopsoas	21RSemiMemb	22RBicFemLong	23RRecFem	24RVastMed	25RVastLat	26RGasMed	27RTibAnt	28RTibPost	29RPeroneusLong	30RSol	31RExtDigLong	32RFlexDigLong
15.85	0.008698	-0.076141	-0.064545	0.014191	0.023499	-0.1088	-0.048523	-0.017395	0.047913	-0.10101	0.063629	0.008087	-0.17929	0.06134	-0.13428	0.008087	-0.012817	0.001831	-0.22293	-0.045013	-0.080261	0.077972	0.003204	0.013428	0.10819	0.003052	0.045624	-0.003204	-0.010376	0.061798	0	-0.009003
15.851	0.014191	-0.095367	-0.090942	0.006714	0.028687	-0.03418	-0.005951	0.00061	0.024567	-0.033875	0.084076	0.009918	-0.13443	0.0737	-0.04425	0.007172	0.02655	-0.02243	-0.45883	0.029907	-0.11597	0.076599	0.20828	-0.014343	0.033569	0.002594	-0.14496	-0.002594	0.10757	0.068512	-0.000458	-0.00824
15.852	0.012817	-0.081787	-0.035858	0.011597	0.056152	0.009003	0.028076	-0.004272	0.005493	-0.086365	0.048676	0.00473	-0.010376	0.078125	0.088348	0.015564	0.033112	-0.01297	-0.44296	0.07431	-0.099335	0.059204	0.2243	-0.046539	0.045624	0.001678	-0.07019	-0.001984	0.077362	0.10315	-0.000916	-0.00412
15.853	0.017242	-0.059052	-0.000916	-0.002136	0.024414	-0.022888	0.025635	0.006714	0.004425	-0.17853	-0.008392	0.005646	-0.32562	0.1149	0.075226	0.008087	0.015869	-0.008545	-0.001373	-0.036011	-0.053406	0.055084	0.25223	-0.058136	0.25177	-0.000153	-0.11871	0.001526	0.021057	0.14862	0.000763	-0.007324
15.854	0.02121	-0.10452	-0.005646	-0.004883	0.02121	-0.015259	0.037079	0.005035	0.012817	-0.063019	-0.040131	0.00412	-0.090942	0.088654	-0.10178	0.012665	-0.02243	-0.002747	0.36392	-0.25284	0.12772	0.032806	0.11246	0.012512	0.31189	-0.001678	-0.039978	-0.000458	0.008087	0.11292	-0.000153	-0.005493
15.855	0.00946	-0.10376	-0.029755	-0.003052	0.006561	0.069427	0.047302	0.002594	0.007935	0.002289	-0.078735	0.00885	0.60715	0.041199	-0.19775	0.003662	-0.05127	-0.011292	0.34271	-0.25909	0.17944	0.005646	0.086823	0.080719	0.25223	-0.002289	-0.021515	-0.006104	0.011597	0.070801	-0.001221	-0.007629
15.856	-0.001678	-0.10834	-0.076752	0.010529	-0.017242	0.13428	0.058899	0.005951	0.006256	0.075989	-0.000458	0.007019	0.24109	-0.02243	-0.18448	-0.029755	-0.034027	-0.028381	-0.16312	-0.16846	0.15915	-0.028381	-0.15152	0.068512	0.28214	-0.008087	-0.039978	-0.000458	0.008087	0.045166	-0.001831	0.000153
15.857	0.004425	-0.075531	-0.069275	0.026398	-0.015564	0.12421	0.046539	0.00473	0.009918	0.017242	0.003204	0.005951	0.10025	0.038757	-0.060272	-0.02594	-0.032654	-0.027008	-0.68588	0.044708	0.10803	-0.11108	-0.64209	-0.096283	0.37262	-0.013428	-0.030975	0.001221	0.032654	0.051727	-0.001068	0.000305
15.858	0.003357	-0.084076	-0.045013	0.016785	0.016785	0.10284	0.035858	0.006104	0.015869	0.018463	-0.002289	0.006866	0.14435	-0.038605	0.010834	-0.021057	-0.022736	0.006866	-0.5603	0.32806	0.069427	-0.11856	-0.71747	-0.23178	0.28412	-0.008392	-0.01709	-0.005646	0.036621	0.053101	-0.00061	-0.006714
15.859	0.011139	-0.055847	-0.007782	0.014648	0.035095	0.16602	0.010834	0.009613	0.039978	0.095367	-0.007172	0.009003	0.17319	-0.11704	-0.012054	-0.006104	-0.007019	0.031738	-0.39963	0.46036	0.088043	-0.090942	-0.37125	-0.20889	0.02655	-0.006561	0.065308	0.001068	-0.031128	0.04776	-0.003967	0.001373
15.86	-0.00473	-0.068359	-0.037079	0.003967	0.011749	0.053864	0.011597	0.008698	0.02243	0.24628	0.032501	0.007629	0.16663	-0.1973	0.000305	0.000763	0.021057	0.090485	-0.19424	0.30014	0.071564	-0.1088	0.002747	-0.15503	-0.25879	-0.003967	0.016632	0.000458	-0.13382	0.009766	-0.001831	-0.009766
15.861	-0.005341	-0.061798	-0.064697	0.014496	-0.027161	0.053101	0.030975	0.015106	0.002594	0.16007	0.06897	0.001678	0.13153	-0.21606	0.049591	0.005188	0.011292	0.12344	0.051117	0.049133	0.086212	-0.066833	0.029602	-0.04425	-0.34744	-0.002136	-0.10986	0.003967	-0.11337	-0.059814	-0.001831	-0.010223
15.862	-0.021667	-0.070038	-0.12299	0.008392	-0.041962	0.024719	0.10986	-0.009918	0.009613	-0.031128	0.056458	0.015259	0.071411	-0.19775	0.032959	0.010681	0.014954	-0.009766	0.057678	-0.030518	0.036774	-0.048523	-0.00824	-0.10757	-0.18539	0.008087	0.029907	0.004272	-0.093079	-0.1059	-0.003357	-0.003357
15.863	-0.005798	-0.10529	-0.12329	0.002594	-0.041962	-0.003052	0.14008	-0.002747	0.028381	0.017548	0.032501	0.01236	0.059967	-0.13947	0.036163	0.006866	0.056	-0.080109	0.31128	0.050507	-0.067749	-0.12482	0.009613	-0.086517	-0.049286	-0.000916	-0.004883	0.001373	-0.07309	-0.12848	-0.000458	-0.00824
15.864	0.006714	-0.059509	0.05722	0.001526	0.051727	-0.027618	0.11887	-0.002899	0.004425	-0.015259	0.006866	0.010681	0.023651	-0.10498	0.045166	-0.005646	0.085297	-0.052948	-0.016479	0.025024	-0.11139	-0.16007	-0.02121	-0.017548	0.081024	-0.005798	0.086823	0.001526	-0.058136	-0.12756	-0.001373	-0.012817
15.865	0.004272	-0.077667	0.099487	0.006866	0.015411	0.021057	0.10498	0.000305	-0.016174	0.033417	0.028992	0.006104	0.040131	-0.042725	0.059509	-0.002747	0.11505	-0.03006	0.22797	-0.093231	-0.19043	-0.15991	0.051422	-0.049438	0.072632	0.005188	0.15198	0.005798	0.09201	-0.21469	0.010834	-0.012512
15.866	0.015717	-0.063629	0.005798	-0.000153	-0.020905	0.033722	-0.010986	-0.001068	-0.013275	0.008698	0.02182	0.004578	-0.039368	0.0383	-0.004425	-0.000153	0.091095	0.037231	0.55725	-0.21881	-0.070801	-0.13092	0.061188	-0.062714	0.093994	0.007477	0.48263	0.000763	0.20386	-0.24704	-0.003052	-0.000763
15.867	0.025177	-0.069122	-0.010223	0.004578	-0.002899	-0.042877	-0.04837	0.003052	0.063019	-0.005951	0.027008	0.014038	0.019531	0.077515	0.087738	0.010986	-0.018463	-0.003204	0.34393	-0.28153	0.17593	0.024109	-0.001678	0.097656	0.046692	0.001984	-0.011444	0.001678	0.18021	-0.15381	-0.002899	-0.010223
15.868	0.001373	-0.068817	0.09491	0.001221	0.022125	0.001678	0.065918	0.003815	0.028381	-0.00946	0.021057	0.018311	0.09079	0.15808	0.625	-0.000458	-0.13489	-0.013733	0.005646	-0.19058	0.25207	0.20599	-0.069122	0.18005	-0.17456	-0.000458	-0.015411	0.001221	0.045929	-0.10605	-0.000458	-0.011902
15.869	0.003967	-0.059357	0.050812	0.014801	0.027924	0.017853	0.05722	0.004578	0.00351	-0.016785	0.056458	0.017395	-0.13184	0.083923	-0.045166	-0.007935	-0.083618	0.011749	-0.07843	-0.031281	0.27252	0.25391	0.0383	0.23239	-0.33508	-0.002289	-0.26306	0.000763	0.044403	-0.005035	-0.000305	-0.014648
15.87	-0.010834	-0.047302	0.023193	0.000305	0.024261	0.037842	0.07431	0.004425	0.002594	-0.006409	0.017853	0.015259	-0.03479	0.1062	-0.43396	-0.000763	-0.034485	-0.037842	-0.2533	0.177	0.224	0.2385	0.19333	0.18463	-0.23911	-0.002136	-0.17731	0.002747	0.049896	0.065613	-0.001678	-0.013428
15.871	-0.001984	-0.075836	0.066528	-0.022125	-0.015564	0.041351	0.059967	0.001678	0.027924	-0.027924	-0.033417	0.015869	0.064087	0.19623	-0.38483	0.00412	-0.011139	-0.016022	-0.27893	0.2327	0.36331	0.15198	0.30563	0.11124	-0.22278	-0.005646	0.04303	-0.003662	0.040131	0.06073	-0.001831	-0.009155
15.872	-0.00412	-0.043335	-0.016479	-0.006561	-0.086365	0.016327	0.078735	-0.003204	0.031433	-0.054321	-0.019379	0.007935	0.42618	0.21515	0.1918	-0.006104	0.015106	0.023804	-0.080109	0.053558	0.2623	0.027771	0.36972	0.086212	-0.18372	-0.000763	0.22293	0.001831	0.08606	0.050507	-0.001678	-0.015259
15.873	0.001984	-0.041046	-0.022125	0.008545	-0.071259	-0.018005	0.11032	-0.002289	0.025482	-0.072937	-0.001831	0.007935	0.28488	0.18341	-0.18005	0.005798	0.014648	0.002136	0.058136	-0.029297	0.068665	-0.061188	0.28061	-0.030365	-0.31281	-0.001678	0.49591	0.000305	0.001373	0.019836	0.000763	-0.007629
15.874	0.010529	-0.037689	0.12619	0.010834	-0.00824	-0.036774	0.11734	0.001526	0.034485	-0.088501	-0.001068	0.007477	-0.21973	0.068054	-0.17227	-0.006256	0.009766	0.042877	0.55786	-0.070496	-0.070801	-0.024414	0.020905	-0.18539	-0.49744	-0.005493	0.69855	0.003967	-0.048676	0.1033	-0.002136	-0.006104
15.875	-0.002136	-0.011139	0.044098	0.012665	-0.03418	-0.041809	0.13275	0.003052	0.055237	-0.10544	0.033264	0.001831	-0.25986	0.015106	-0.14435	-0.008087	-0.007019	0.053101	0.74783	-0.10086	-0.12131	-0.060883	-0.06485	-0.19959	-0.34546	-0.001526	0.85648	-0.00061	-0.06424	0.005493	-0.001526	-0.006409
15.876	-0.001373	-0.079956	0.058441	0.014343	-0.06134	-0.020447	0.12344	0.006256	0.067444	-0.09201	0.003815	0.00061	0.0914	0.048981	-0.061493	-0.009003	-0.025177	0.039063	0.10712	-0.072021	-0.037994	-0.056763	-0.091248	-0.16739	-0.2417	0.012817	0.6897	0.00061	0.059662	-0.049133	-0.003815	-0.000305
15.877	0.00351	-0.12375	-0.016327	0.001526	0.031281	-0.052795	0.11719	0.005798	0.062103	-0.045013	-0.014496	0.001068	0.021973	0.11765	-0.003052	-0.004425	-0.014343	0.039978	-0.097198	0.003815	0.24048	-0.065613	0.091553	-0.004272	-0.2504	0.005493	0.31555	-0.001678	0.14771	0.068054	-0.004883	-0.002441
15.878	0.01236	-0.10178	0.050354	-0.007629	0.044556	-0.063171	0.13763	-0.000305	0.053864	-0.059814	-0.009308	0.009613	0.11169	0.12604	0.02655	0.018616	-0.049591	0.034485	-0.41672	0.031128	0.439	-0.037689	0.24231	0.041351	-0.24033	0.001526	0.045013	0.002594	0.15701	0.18509	-0.001831	-0.002136
15.879	0.017548	-0.058136	0.064087	0.00885	0.10651	0.015259	0.14221	-0.005188	0.055084	-0.112	-0.044098	0.00473	0.046234	0.096893	0.029907	-0.014954	-0.043488	0.045471	-0.19882	0.015259	0.24765	-0.030212	0.16678	-0.063934	-0.22217	0.000763	-0.44189	0.001221	0.058594	0.20279	-0.000305	-0.01236
